<svg width="278" height="360" viewBox="0 0 278 360" fill="none" xmlns="http://www.w3.org/2000/svg">
<path d="M0 160.773H255.765C261.333 161.066 266.786 159.054 270.934 155.175C275.081 151.296 277.585 145.865 277.9 140.07V23.4525C277.676 18.2849 275.672 13.3742 272.254 9.619C268.837 5.86379 264.236 3.5153 259.292 3.00328C223.962 -2.25148 147.889 -6.17673 80.9984 41.8758C41.2066 70.1437 12.4684 112.328 0 160.773Z" fill="#FFCE00"/>
<path d="M247.921 199.267H22.074C16.522 198.973 11.084 200.979 6.94799 204.846C2.81199 208.713 0.314176 214.127 0 219.906V353.427C12.7092 356.53 112.133 378.752 196.902 318.164C228.545 295.589 253.385 264.129 268.536 227.44C274.13 213.891 263.488 199.267 247.921 199.267Z" fill="#FFCE00"/>
</svg>
